<?xml version="1.0" encoding="UTF-8"?>
<svg id="Layer_1" data-name="Layer 1" xmlns="http://www.w3.org/2000/svg" viewBox="0 0 981.35 984.54">
  <defs>
    <style>
      .cls-1 {
        fill: #fff;
      }

      .cls-2 {
        fill: #faede7;
      }
    </style>
  </defs>
  <path d="M981.1,.25V984.29H.25V.25H981.1Zm-25.56,952.09V29H32.2V952.34H955.54Z"/>
  <path class="cls-2" d="M192.87,436.45c-23.35,54.03-29.36,115.4-16.87,172.91,4.31,19.78,10.7,39.07,17.51,58.15,9.52,26.77,20.06,53.61,36.93,76.49,13.99,18.98,31.95,34.63,49.75,50.13,33.96,29.62,71.31,60.67,115.94,65.02l-.13,1.41c41.15,22.65,91.34,17.89,137.89,11.66,21.79-2.91,43.67-6.04,64.41-13.32,15.24-5.4,29.62-12.97,43.52-21.25,74.99-44.6,139.17-113.87,159.84-198.5,3.48-17.16,5.18-34.51,5.5-51.92,.96-48.02-8.43-96.71-20.38-143.77-.89-3.64-1.82-7.25-2.78-10.86l-.89-.26c-31.85,101.02-113.68,177.35-210.48,216.68-27.19,11.05-55.43,19.36-84.22,25.02-32.3-6.39-64.03-16.13-94.19-29.39-89.87-39.49-166.39-112.53-198.02-206.78l-3.32-1.41ZM955.54,29V952.34H32.2V29H955.54Zm-206.81,376.2l-45.08-55.46,20.13-68.56-66.68,25.72-59.01-40.35,3.87,71.37-56.58,43.64,69.07,18.37,23.99,67.32,38.82-60,71.47-2.04Zm-207.45-177.03l52.84-48.12-70.35-12.65-29.46-65.11-33.77,62.97-71.02,7.89,49.46,51.6-14.44,70,64.35-31.12,62.11,35.37-9.71-70.83Zm-172.72,172.37l69.04-18.37-56.58-43.64,3.87-71.37-59.01,40.35-66.68-25.75,20.13,68.6-45.05,55.46,71.44,2.04,38.82,60,24.03-67.32Z"/>
  <path d="M786.78,443.45c11.95,47.06,21.34,95.75,20.38,143.77l-2.94-.06c0-4.63-.35-9.27-1.15-13.87-.42-2.49-1.02-5.02-2.08-7.25l1.41-.54c-4.98-29.59-9.94-59.17-14.92-88.76-1.47-8.72-2.94-17.48-4.06-26.23,.67-2.24,1.34-4.44,1.92-6.71l1.44-.35Z"/>
  <path d="M804.22,587.16l2.94,.06c-.32,17.41-2.01,34.76-5.5,51.92-20.67,84.63-84.86,153.9-159.84,198.5-13.9,8.27-28.28,15.85-43.52,21.25-20.74,7.28-42.62,10.42-64.41,13.32-46.55,6.23-96.74,10.99-137.89-11.66l.13-1.41c1.02,.13,2.08,.22,3.13,.29l.93-2.49c3,1.12,5.97,2.24,8.98,3.35,4.86,1.82,9.74,3.64,14.76,4.98,11.09,2.91,22.65,3.29,34.12,3.55,30.48,.67,61.47,.45,90.64-8.27l.7,.48c38.08-7.03,77.7-15.88,107.35-40.77,7.41-6.23,14.12-13.39,22.2-18.72,7.19-4.7,15.72-8.18,20.45-15.34l-.86-1.18c12.81-9.97,25.69-20,36.84-31.76,11.18-11.79,20.7-25.5,25.62-40.96l-.16-.13c8.59-12.11,15.81-25.21,21.44-38.95,4.09-10.03,7.35-20.35,10.58-30.67,5.66-18.02,11.37-36.74,11.37-55.4Z"/>
  <path class="cls-1" d="M192.36,454.12c.64-2.2,1.25-4.41,1.85-6.61,6.49,16.17,13.35,32.17,20.64,47.99,3.45,7.48,7,14.95,11.53,21.82,3.96,5.97,8.66,11.41,13.35,16.84,15.27,17.67,30.64,35.24,46.13,52.75,5.69,6.42,12.36,13.32,20.93,13.67l.61,.48c9.71,10.06,22.2,16.87,34.54,23.51,9.36,5.08,18.75,10.16,28.15,15.24,10.32,5.59,20.67,11.18,31.41,15.97,24.06,10.77,49.75,17.35,75.46,23l.77-.19c15.11,3.26,31.12,1.98,45.53-3.58,6.26-2.4,12.2-5.62,18.56-7.76l-.03-.13c9.43-2.97,18.72-6.26,27.92-9.81,7.57-2.94,15.08-6.04,22.46-9.39,41.28-18.79,79.11-45.11,111.02-77.32l-.42-.48c8.34-6.68,15.24-15.02,21.98-23.35,23.8-29.36,47.48-60.32,58.66-96.26,1.12,8.75,2.59,17.51,4.06,26.23,4.98,29.59,9.94,59.17,14.92,88.76l-1.41,.54c1.05,2.24,1.66,4.76,2.08,7.25,.8,4.6,1.15,9.23,1.15,13.87,0,18.66-5.72,37.38-11.37,55.4-3.23,10.32-6.49,20.64-10.58,30.67-5.62,13.74-12.84,26.84-21.44,38.95l.16,.13c-4.92,15.46-14.44,29.17-25.62,40.96-11.15,11.76-24.03,21.79-36.84,31.76l.86,1.18c-4.73,7.16-13.26,10.64-20.45,15.34-8.08,5.34-14.79,12.49-22.2,18.72-29.65,24.89-69.27,33.74-107.35,40.77l-.7-.48c-29.17,8.72-60.16,8.95-90.64,8.27-11.47-.26-23.04-.64-34.12-3.55-5.02-1.34-9.9-3.16-14.76-4.98-3-1.12-5.97-2.24-8.98-3.35-12.4-4.66-24.82-9.33-37.22-13.99l-.22-.29c-41.82-21.47-79.94-50.16-112.14-84.44-6.49-6.9-12.78-14.09-17.8-22.11-3.71-5.97-6.71-12.33-9.78-18.66l-1.34,.61c-14.98-32.56-27.38-66.33-37.03-100.86l-.86-.29c-13.77-53.45-10.86-111.09,8.12-162.91l.45,.13Z"/>
  <path d="M488.4,674.03c28.79-5.66,57.03-13.96,84.22-25.02,96.81-39.33,178.63-115.66,210.48-216.68l.89,.26c.96,3.61,1.89,7.22,2.78,10.86l-1.44,.35c-.58,2.27-1.25,4.47-1.92,6.71-11.18,35.94-34.86,66.9-58.66,96.26-6.74,8.34-13.64,16.68-21.98,23.35l.42,.48c-31.92,32.2-69.75,58.53-111.02,77.32-7.38,3.35-14.89,6.45-22.46,9.39-9.2,3.55-18.5,6.84-27.92,9.81l.03,.13c-6.36,2.14-12.3,5.37-18.56,7.76-14.41,5.56-30.42,6.84-45.53,3.58l-.77,.19c-25.72-5.66-51.41-12.24-75.46-23-10.73-4.79-21.09-10.38-31.41-15.97-9.39-5.08-18.79-10.16-28.15-15.24-12.33-6.65-24.82-13.45-34.54-23.51l-.61-.48c-8.56-.35-15.24-7.25-20.93-13.67-15.5-17.51-30.86-35.08-46.13-52.75-4.7-5.43-9.39-10.86-13.35-16.84-4.54-6.87-8.08-14.35-11.53-21.82-7.28-15.81-14.15-31.82-20.64-47.99-.61,2.2-1.21,4.41-1.85,6.61l-.45-.13c-18.98,51.82-21.89,109.46-8.12,162.91l.86,.29c9.65,34.54,22.05,68.31,37.03,100.86l1.34-.61c3.07,6.33,6.07,12.68,9.78,18.66,5.02,8.02,11.31,15.21,17.8,22.11,32.2,34.28,70.32,62.97,112.14,84.44l.22,.29c12.4,4.66,24.82,9.33,37.22,13.99l-.93,2.49c-1.05-.06-2.11-.16-3.13-.29-44.63-4.35-81.98-35.4-115.94-65.02-17.8-15.5-35.75-31.15-49.75-50.13-16.87-22.88-27.41-49.71-36.93-76.49-6.81-19.07-13.2-38.37-17.51-58.15-12.49-57.51-6.49-118.88,16.87-172.91l3.32,1.41c31.63,94.25,108.15,167.29,198.02,206.78,30.16,13.26,61.89,23,94.19,29.39Z"/>
  <path d="M703.65,349.74l45.08,55.46-71.47,2.04-38.82,60-23.99-67.32-69.07-18.37,56.58-43.64-3.87-71.37,59.01,40.35,66.68-25.72-20.13,68.56Zm31.21,48.95l-39.01-48.02,17.44-59.36-57.73,22.27-51.09-34.92,3.35,61.79-48.98,37.8,59.78,15.88,20.8,58.28,33.58-51.95,61.85-1.76Z"/>
  <polygon class="cls-1" points="695.85 350.67 734.86 398.69 673.01 400.45 639.43 452.4 618.63 394.12 558.85 378.24 607.83 340.45 604.48 278.66 655.56 313.58 713.3 291.31 695.85 350.67"/>
  <path d="M494.44,116.19l-29.23,54.51-61.47,6.84,42.81,44.63-12.49,60.61,55.69-26.93,53.77,30.61-8.4-61.31,45.72-41.66-60.86-10.96-25.53-56.33Zm99.68,63.87l-52.84,48.12,9.71,70.83-62.11-35.37-64.35,31.12,14.44-70-49.46-51.6,71.02-7.89,33.77-62.97,29.46,65.11,70.35,12.65Z"/>
  <polygon class="cls-1" points="580.83 183.48 535.11 225.14 543.52 286.45 489.75 255.84 434.06 282.78 446.55 222.17 403.74 177.54 465.21 170.7 494.44 116.19 519.97 172.52 580.83 183.48"/>
  <path d="M424.12,378.82l-48.98-37.76,3.35-61.79-51.09,34.92-57.7-22.27,17.41,59.36-39.01,48.02,61.85,1.76,33.61,51.95,20.77-58.28,59.78-15.91Zm13.48,3.35l-69.04,18.37-24.03,67.32-38.82-60-71.44-2.04,45.05-55.46-20.13-68.6,66.68,25.75,59.01-40.35-3.87,71.37,56.58,43.64Z"/>
  <polygon class="cls-1" points="375.14 341.05 424.12 378.82 364.35 394.73 343.58 453 309.97 401.05 248.11 399.3 287.12 351.28 269.71 291.92 327.41 314.18 378.5 279.26 375.14 341.05"/>
</svg>