<?xml version="1.0" encoding="UTF-8"?>
<svg id="Layer_1" data-name="Layer 1" xmlns="http://www.w3.org/2000/svg" viewBox="0 0 1017.4 1018.5">
  <defs>
    <style>
      .cls-1 {
        fill: #fff;
      }
    </style>
  </defs>
  <path d="M907.05,826.91l.28,.15c13.91-16.32,25.25-34.85,33.46-54.68l-3.31-2.04c-36.51,59.6-85.13,111-142.45,150.73l1.45,2.22c2.18-1.42,4.35-2.84,6.51-4.26,20.55-13.46,41.19-27.01,59.39-43.52l.15,.12c5.2-5.94,12.53-9.83,17.55-15.94,2.39-2.92,4.19-6.28,6.43-9.31,6.18-8.43,15.53-14.39,20.54-23.48Z"/>
  <path d="M718.49,971.19c9.77-7.34,21.2-12.13,32.1-17.66,16.24-8.23,31.59-18.23,45.66-29.76l.07-.36c.07-.04,.12-.07,.17-.12l-1.45-2.22c-49.55,34.34-105.59,59.98-165.92,74.71l.89,4.43c4.97-1.03,10-1.93,15.04-2.71l.07,.38c3.93-.65,7.92-1.12,11.79-2.16,4.36-1.16,8.52-3.02,12.62-4.95,.04-.01,.07-.01,.09-.04,11.15-3.85,22.3-7.75,33.44-11.61,4.42-1.53,8.9-3.11,12.76-5.75,.91-.65,1.85-1.35,2.8-2.01l-.12-.17Z"/>
  <path class="cls-1" d="M795.03,921.07c57.33-39.73,105.95-91.13,142.45-150.73,46.61-76.08,73.47-165.56,73.47-261.35,0-95.84-26.92-185.43-73.62-261.55h.01c-36.61-59.69-85.35-111.11-142.81-150.84C713.71,40.7,615.62,7.95,509.91,7.95c-38.44,0-75.87,4.34-111.81,12.55h-.01c-63.7,14.51-122.78,41.16-174.67,77.39-57.21,39.93-105.7,91.52-142.02,151.3C35.37,324.95,8.87,413.86,8.87,508.99c0,170.31,84.96,320.76,214.8,411.3,51.98,36.24,111.16,62.88,174.98,77.34,35.78,8.13,73.01,12.41,111.26,12.41,41.08,0,81-4.95,119.2-14.26,60.33-14.72,116.37-40.37,165.92-74.71Zm144.73-416.75c.01,235.82-191.15,426.99-426.97,426.97-235.81,0-426.97-191.17-426.97-426.97,0-3.68,.05-7.35,.15-11.02,1.83-72.22,21.59-139.99,55.01-199.02,29.87-52.75,70.63-98.51,119.24-134.24,70.72-51.99,158.06-82.69,252.58-82.69,235.82-.01,426.99,191.15,426.97,426.97Z"/>
  <path d="M941.17,772.31c1.75-1.85,3.76-3.44,5.46-5.33,7.82-8.72,7.95-22.53,15.94-31.02l-.63-.58c3.7-4.26,5.98-9.52,8.21-14.69,6.96-16.08,13.9-32.18,19.67-48.74l-.07-.33c6.18-19.64,12.06-39.39,17.59-59.23,2.55-14.62,5.12-29.24,7.67-43.86,1.71-19.72,2.38-39.5,2.05-59.27l-.38-.57c.34-19.73-.33-39.48-2.02-59.14-2.55-14.67-5.12-29.32-7.68-43.98-5.54-19.85-11.41-39.59-17.6-59.24l.09-.33c-5.78-16.55-12.74-32.66-19.69-48.74-2.24-5.17-4.51-10.44-8.2-14.68l.63-.58c-8-8.5-8.12-22.33-15.94-31.02-1.71-1.89-3.73-3.49-5.48-5.34l-.38-.07-3.06,1.86h-.01c46.7,76.13,73.62,165.72,73.62,261.56,0,95.79-26.86,185.27-73.47,261.35l3.31,2.04,.38-.07Z"/>
  <path d="M620.61,1002.17c3.12-.69,6.23-1.36,9.39-1.96l-.89-4.43c-38.2,9.31-78.12,14.26-119.2,14.26-38.25,0-75.49-4.27-111.26-12.41l-1.18,5.25c-.24-.05-.46-.09-.69-.16l-.05,.26c35.74,11.96,73.87,14.93,111.57,15.25v-.54c37.97-.29,76.37-3.21,112.36-15.26l-.05-.26Z"/>
  <path d="M90.66,503.78c-.12-3.06-.2-6.1-.24-9.13l-4.47-1.35c-.09,3.66-.15,7.34-.15,11.02,0,235.81,191.17,426.97,426.97,426.97,235.82,.01,426.99-191.15,426.97-426.97,.01-235.82-191.15-426.99-426.97-426.97-94.52,0-181.86,30.7-252.58,82.69l3.23,4.36c.25-.07,.52-.15,.75-.22,20-5.63,37.14-18.33,54.98-29.01,30.26-18.12,63.69-30.94,98.3-37.67,12.49-2.43,25.12-4.06,37.59-6.51,18.03-3.51,36.4-8.68,54.45-6.79,19.42-3.33,39.28,2.41,58.74,6.18,12.49,2.43,25.12,4.09,37.59,6.51,34.63,6.75,68.04,19.55,98.3,37.67,17.84,10.67,34.98,23.37,55,29.02l-.15,.52c33.41,25.1,53.91,64.12,85.89,91l-.12,.15c15.94,13.5,28.15,31.08,37.6,49.75,9.99,19.67,17.09,40.66,24.17,61.54,4.66,13.78,9.35,27.68,11.07,42.13l-.32,.05c.21,1.22,.41,2.45,.61,3.68,8.68,29.65,13.65,60.42,14.76,91.32-1.11,30.9-6.08,61.66-14.76,91.32-.2,1.23-.4,2.46-.61,3.68l.32,.05c-1.72,14.44-6.42,28.35-11.07,42.13-7.08,20.89-14.18,41.88-24.17,61.54-9.46,18.66-21.65,36.23-37.6,49.75l.12,.15c-31.98,26.88-52.48,65.9-85.89,91l.15,.52c-20.01,5.65-37.15,18.35-55,29.02-30.26,18.12-63.67,30.92-98.3,37.67-12.47,2.42-25.1,4.07-37.59,6.51-19.46,3.77-39.32,9.51-58.74,6.18-18.04,1.9-36.41-3.27-54.45-6.79-12.47-2.45-25.1-4.07-37.59-6.51-34.61-6.73-68.04-19.55-98.3-37.67-17.84-10.67-34.98-23.37-54.98-29.01l.15-.52c-33.42-25.12-53.93-64.14-85.91-91.01l.12-.15c-15.94-13.5-28.15-31.08-37.6-49.75-9.99-19.67-17.09-40.66-24.17-61.54-4.66-13.78-9.35-27.68-11.06-42.11l.52-.07c-.08-.53-.13-1.06-.2-1.6-9.01-30.09-14.17-61.33-15.37-92.72Z"/>
  <path d="M441.69,807.74h-.01c3.28,1.89,7.01,3.06,10.65,4.18,33.32,10.3,67.83,20.74,102.45,16.69h.01s.01-.37,.01-.37c18.61,.52,37.29-1.71,55.26-6.53l-.16-.58c4.91-2.92,10.59-4.06,16.15-5.28,23.6-5.21,46.66-12.72,68.79-22.42l.26,.63c16.27-5.29,31.93-12.38,46.62-21.15,25-14.89,46.9-34.36,68.66-53.71-7.04-1.83-14.25-1.68-21.47-.73l1.1,5.04c-1.23,.89-2.47,1.79-3.72,2.66-60.3,43.13-126.94,80.38-200.15,91.58-54.19,8.29-112.63,.12-159.61-26.73l-2.49,4.21h-.01c6.26,3.68,12.25,7.66,17.63,12.51Z"/>
  <path d="M388.5,497.91c.16-36.43,4.38-72.79,12.54-108.27,2.9-12.55,6.3-25.5,5.3-38.19,0,0-.03,0,0-.03-.37-1.59-.57-3.21-.61-4.84h-.01c-.03-1.28,.04-2.57,.2-3.84-.45,.63-.91,1.26-1.35,1.9h-.01c-1.43,14.11-5.08,25.36-7.55,37.75-6.61,35.71-11.9,67.46-14.55,101.85-1.32,59.49,27.75,115.02,64.93,159.63l.11-.08c12.05,14.25,25.13,27.62,39.09,39.98h.01s.42-.49,.42-.49c44.64,37.21,100.19,66.31,159.71,64.98,34.39-2.65,66.13-7.94,101.85-14.55,12.41-2.49,23.64-6.12,37.74-7.55,1.24-.87,2.49-1.77,3.72-2.66l-1.1-5.04c-7.22,.95-14.47,2.75-21.59,4.26-9.89,2.09-19.92,3.65-30,4.63-17.01,4.74-34.81,5.53-52.44,6.31-13.05,.57-26.08,1.14-39.14,1.71l-.54,.09c-6.8,.9-13.65,1.48-20.48,1.01-7.38-.5-14.6-2.25-21.69-4.34-25.82-7.65-49.94-20.03-73.88-32.35-4.92-2.54-9.87-5.08-14.8-7.61-.03-.03-.07-.04-.11-.05-15.49-4.85-24.83-20.41-37.63-30.49-3.98-3.13-8.36-5.77-12.06-9.21-3.29-3.03-5.99-6.63-8.66-10.2-6.98-9.26-13.95-18.53-20.92-27.8l-1.19,.26h-.01c-2.74-13.07-11.31-24.02-18.04-35.57-11.36-19.51-17.75-41.45-23.97-63.14-1.67-5.87-3.37-11.97-2.72-18.01l-.54-.07Z"/>
  <path class="cls-1" d="M447.39,643.88c-37.18-44.61-66.25-100.14-64.93-159.63,2.65-34.39,7.94-66.13,14.55-101.85,2.47-12.39,6.12-23.64,7.55-37.74-43.12,60.29-80.38,126.94-91.57,200.13-.17,1.1-.33,2.21-.49,3.32-10.36,73.85,9.76,154.94,65.86,203.89l.61,.37c13.65,15.63,29.8,28.48,47.59,38.65,46.98,26.85,105.42,35.02,159.61,26.73,73.21-11.2,139.85-48.45,200.15-91.58-14.1,1.43-25.33,5.07-37.74,7.55-35.71,6.61-67.46,11.9-101.85,14.55-59.52,1.32-115.07-27.78-159.71-64.98l-.42,.48h-.01c-13.95-12.35-27.04-25.73-39.09-39.97l-.11,.08Z"/>
  <path d="M298.9,971.74l-.12,.17c.95,.66,1.89,1.36,2.82,2,3.85,2.66,8.33,4.23,12.75,5.77,10.82,3.76,21.61,7.51,32.41,11.27l.15-.41c6.64,1.3,13.23,2.99,19.67,5.04,2.04,.66,4.05,1.35,6.06,2.04,.89,.3,1.8,.61,2.69,.91h.03c7.2,1.19,14.34,2.59,21.44,4.19,.22,.07,.45,.11,.69,.16l1.18-5.25c-63.82-14.46-123-41.1-174.98-77.34l-2.59,3.68,.08,.34c14.07,11.53,29.42,21.53,45.65,29.77,10.91,5.52,22.33,10.32,32.1,17.66Z"/>
  <path d="M593.37,671.11c-.87,1.24-1.77,2.49-2.66,3.72l-5.04-1.1c-.97,7.21-1.1,14.43,.71,21.45,19.36-21.74,38.83-43.65,53.73-68.65,8.76-14.71,15.87-30.37,21.14-46.64l-.63-.24c9.68-22.14,17.21-45.22,22.43-68.81,1.22-5.56,2.35-11.27,5.26-16.16l.6,.15c4.83-17.98,7.05-36.65,6.52-55.25h.38c4.03-34.65-6.39-69.15-16.71-102.48-1.12-3.64-2.29-7.37-4.15-10.63h-.01c-5.16-5.7-9.35-12.14-13.2-18.82l-4.25,2.47c27.43,47.19,35.83,106.17,27.46,160.84-11.2,73.21-48.45,139.85-91.58,200.15Z"/>
  <path d="M213.78,290.54c1.65,.04,3.29,.25,4.91,.6,12.66,.99,25.59-2.39,38.15-5.29,35.49-8.16,71.87-12.38,108.29-12.55l.07,.54c6.03-.63,12.13,1.04,18,2.74,21.69,6.22,43.62,12.59,63.13,23.95,11.56,6.75,22.5,15.33,35.58,18.07l-.26,1.19c9.27,6.97,18.54,13.94,27.8,20.92,3.57,2.67,7.17,5.37,10.2,8.66,3.43,3.72,6.07,8.08,9.21,12.06,10.11,12.83,25.71,22.19,30.54,37.74,2.53,4.93,5.05,9.87,7.61,14.8,12.31,23.95,24.71,48.07,32.35,73.88,2.09,7.09,3.84,14.31,4.34,21.69,.48,6.83-.11,13.68-1.02,20.46l-.08,.56c-.57,13.05-1.14,26.08-1.72,39.12-.75,17.6-1.56,35.39-6.28,52.36-1.01,10.11-2.54,20.16-4.64,30.09-1.51,7.12-3.31,14.36-4.26,21.59l5.04,1.1c.89-1.23,1.79-2.47,2.66-3.72,1.43-14.1,5.07-25.33,7.55-37.74,6.61-35.71,11.9-67.46,14.55-101.85,1.32-59.52-27.78-115.07-64.98-159.71l.49-.44c-12.39-13.95-25.75-27.02-39.98-39.09l.08-.11c-44.61-37.18-100.14-66.25-159.63-64.93-34.39,2.65-66.13,7.94-101.85,14.55-12.41,2.49-23.66,6.12-37.78,7.57-.65,.44-1.3,.9-1.92,1.36,1.28-.17,2.59-.24,3.88-.2Z"/>
  <path class="cls-1" d="M511.08,332.19l-.08,.11c14.23,12.06,27.59,25.13,39.98,39.09l-.49,.44c37.21,44.64,66.31,100.19,64.98,159.71-2.65,34.39-7.94,66.13-14.55,101.85-2.49,12.41-6.12,23.64-7.55,37.74,43.13-60.3,80.38-126.94,91.58-200.15,8.37-54.67-.03-113.64-27.46-160.84-10.04-17.31-22.63-33.03-37.92-46.36l-.37-.61c-48.97-56.11-130.06-76.23-203.9-65.87-1.11,.16-2.22,.32-3.32,.49-73.21,11.2-139.86,48.49-200.16,91.6,14.11-1.44,25.37-5.08,37.78-7.57,35.71-6.61,67.46-11.9,101.85-14.55,59.49-1.32,115.02,27.75,159.63,64.93Z"/>
  <path d="M309.18,640.35l-.08,.03h-.01c-1.44,3.54-.34,7.55,.83,11.19,11.86,36.78,30.57,71.33,54.88,101.38l-.03,.03h-.01c9.32,10.5,20.16,19.62,32.1,27.01,8.82,5.46,18.25,10.03,27.19,15.26h.01s2.49-4.22,2.49-4.22c-17.79-10.17-33.94-23.01-47.59-38.65l-.61-.37c-56.09-48.95-76.21-130.05-65.86-203.89l-5.26-.74c-1.93,13.49-3.84,26.98-5.77,40.47-1.08,7.65-2.17,15.37-1.48,23.07,.93,10.26,5,19.97,9.19,29.43Z"/>
  <path d="M906.66,191.03c-5.01-9.09-14.36-15.05-20.53-23.46-2.24-3.06-4.03-6.39-6.43-9.31-5.04-6.12-12.38-10.03-17.58-15.94l-.13,.11c-18.19-16.49-38.82-30.04-59.36-43.52-2.24-1.47-4.46-2.92-6.68-4.38l-1.42,2.08c57.46,39.73,106.2,91.15,142.81,150.83l3.06-1.86c-8.2-19.81-19.54-38.34-33.46-54.68l-.28,.15Z"/>
  <path d="M110.34,827.47c5.03,9.07,14.38,15.07,20.54,23.48,2.24,3.03,4.05,6.38,6.44,9.3,5.03,6.11,12.34,10.01,17.54,15.95l.15-.12c18.2,16.51,38.85,30.04,59.39,43.52,2.22,1.45,4.46,2.92,6.68,4.38l2.59-3.68C93.82,829.75,8.87,679.3,8.87,508.99c0-95.13,26.51-184.04,72.54-259.8l-4.42-3.07-.38,.07c-1.75,1.85-3.76,3.44-5.46,5.33-7.82,8.72-7.95,22.53-15.94,31.02l.63,.58c-3.7,4.26-5.98,9.52-8.21,14.69-6.94,16.1-13.89,32.19-19.67,48.74l.07,.33c-6.19,19.66-12.06,39.39-17.59,59.23-2.55,14.62-5.12,29.24-7.67,43.86-.01,.01-.03,.05-.03,.08-1.68,19.69-2.37,39.46-2.02,59.19l-.37,.56c-.34,19.71,.32,39.39,2.01,59.02,.01,.04,.01,.09,.01,.15,2.57,14.66,5.12,29.32,7.68,43.98,5.54,19.83,11.41,39.59,17.62,59.23l-.09,.33c5.78,16.55,12.74,32.66,19.67,48.74,2.24,5.17,4.54,10.44,8.21,14.69l-.62,.57c7.99,8.52,8.11,22.31,15.93,31.03,1.52,1.68,3.27,3.11,4.87,4.71l1.01,.69c8.19,19.83,19.52,38.36,33.44,54.68l.28-.15Z"/>
  <path d="M507.54,193.98c-9.47-4.21-19.15-8.25-29.43-9.19-7.7-.69-15.42,.4-23.07,1.48-13.5,1.92-27,3.85-40.5,5.77l.75,5.25c73.85-10.36,154.94,9.76,203.9,65.87l.37,.61c15.29,13.33,27.88,29.05,37.92,46.36l4.25-2.47c-4.96-8.58-9.35-17.58-14.56-25.99-7.39-11.94-16.51-22.78-27.01-32.11l-.04,.04c-30.04-24.3-64.6-42.99-101.37-54.86-3.64-1.18-7.65-2.28-11.18-.83l-.04,.09Z"/>
  <path d="M619.6,15.29C584.29,3.59,546.7,.6,509.46,.27V.82c-37.72,.28-75.87,3.16-111.65,15.03h-.01c-.22,.08-.45,.15-.69,.22l.98,4.42h.01c35.94-8.2,73.37-12.54,111.81-12.54,105.71,0,203.8,32.75,284.63,88.66l1.42-2.08-.08-.34c-14.09-11.55-29.42-21.53-45.66-29.76-10.95-5.56-22.42-10.36-32.23-17.76l.04-.09c-15.66-4.97-30.99-10.99-45.86-17.98-5.12-2.39-10.21-4.92-15.66-6.38-6.16-1.64-12.64-1.88-18.78-3.68-5.98-1.77-12.04-5.05-18.05-3.48l-.07,.22Z"/>
  <path d="M338.25,433.29h-.03c-8.74,28.19-17.7,56.32-26.85,84.39l.08,.03c-1.4,9.89-2.82,19.77-4.22,29.67l5.26,.74c.16-1.11,.32-2.22,.49-3.32,11.19-73.2,48.45-139.85,91.57-200.13h.01c.44-.66,.9-1.28,1.35-1.92h.01c.01-.19,.05-.36,.07-.53,.45-3.12,1.49-6.34,.57-9.38-11.75,10.16-21.67,22.38-29.22,35.94l.29,.16c-6.06,12.33-13.39,24.02-21.84,34.83-7.13,9.11-15.36,18.27-17.55,29.54Z"/>
  <path d="M300.49,223.05c-11.28,2.18-20.42,10.42-29.54,17.55-10.82,8.44-22.5,15.78-34.83,21.84l-.17-.3c-13.54,7.57-25.77,17.49-35.92,29.23,3.03,.91,6.26-.12,9.38-.57,.16-.03,.33-.04,.49-.07,.62-.46,1.27-.93,1.92-1.36,60.3-43.11,126.95-80.39,200.16-91.6,1.1-.17,2.21-.33,3.32-.49l-.75-5.25c-9.88,1.42-19.76,2.8-29.64,4.22l-.03-.08c-28.08,9.14-56.2,18.11-84.39,26.85v.03Z"/>
  <path d="M105.9,407.81c1.84-13.9,6.36-27.34,10.87-40.66,7.08-20.89,14.18-41.88,24.17-61.54,1.48-2.94,3.03-5.83,4.67-8.69l-4.64-2.63c-33.42,59.03-53.19,126.81-55.01,199.02l4.47,1.35c.04,3.03,.12,6.07,.24,9.13,1.19-31.43,6.36-62.71,15.37-92.85,.12-1.02,.26-2.04,.38-3.06l-.52-.07Z"/>
  <path d="M178.42,255.71c31.98-26.88,52.48-65.9,85.91-91.01l-.15-.52c-.24,.08-.5,.16-.75,.22l-3.23-4.36c-48.61,35.73-89.37,81.49-119.24,134.24l4.64,2.63c8.7-15.4,19.5-29.68,32.93-41.06l-.12-.15Z"/>
  <path d="M398.09,20.48l-.98-4.42c.24-.08,.46-.15,.69-.24l-.07-.2c-6.03-1.59-12.09,1.69-18.05,3.45-6.12,1.81-12.62,2.04-18.8,3.69-5.45,1.45-10.54,3.98-15.63,6.38-14.89,6.98-30.2,12.98-45.87,17.96l.03,.11c-9.8,7.39-21.27,12.2-32.22,17.75-16.24,8.23-31.59,18.23-45.66,29.76l-.07,.36,1.96,2.8c51.89-36.23,110.97-62.88,174.67-77.4Z"/>
  <path d="M110.73,191.59l-.28-.15c-13.91,16.32-25.25,34.85-33.46,54.68l4.42,3.07c36.32-59.79,84.81-111.37,142.02-151.3l-1.96-2.8c-2.24,1.47-4.46,2.92-6.68,4.38-20.55,13.46-41.19,27.01-59.39,43.52l-.13-.11c-5.21,5.93-12.53,9.83-17.55,15.94-2.41,2.91-4.21,6.27-6.45,9.31-6.16,8.41-15.52,14.38-20.53,23.46Z"/>
</svg>